<svg width="319" height="312" viewBox="0 0 319 312" fill="none" xmlns="http://www.w3.org/2000/svg">
<path d="M246.7 69.7999C246.7 65.4423 243.157 61.8997 238.8 61.8997C234.442 61.8997 230.9 65.4428 230.9 69.7999C230.9 74.1574 234.443 77.7 238.8 77.7C243.157 77.7 246.7 74.1574 246.7 69.7999ZM224.5 69.7999C224.5 61.914 230.914 55.5 238.8 55.5C246.686 55.5 253.1 61.914 253.1 69.7999C253.1 77.6861 246.686 84.0997 238.8 84.0997C230.914 84.0997 224.5 77.6857 224.5 69.7999Z" fill="#FF7A59" stroke="#FF7A59" stroke-linejoin="round"/>
<path d="M0.5 223.8C0.5 215.914 6.91403 209.5 14.7999 209.5C22.6861 209.5 29.0997 215.914 29.0997 223.8C29.0997 231.686 22.6861 238.1 14.7999 238.1C6.91403 238.1 0.5 231.686 0.5 223.8ZM6.89971 223.8C6.89971 228.157 10.4427 231.7 14.7999 231.7C19.1574 231.7 22.7 228.157 22.7 223.8C22.7 219.442 19.157 215.9 14.7999 215.9C10.4423 215.9 6.89971 219.442 6.89971 223.8Z" fill="#FF7A59" stroke="#FF7A59" stroke-linejoin="round"/>
<path d="M175.5 166.8C175.5 158.914 181.914 152.5 189.8 152.5C197.686 152.5 204.1 158.914 204.1 166.8C204.1 174.686 197.686 181.1 189.8 181.1C181.914 181.1 175.5 174.686 175.5 166.8ZM181.9 166.8C181.9 171.157 185.443 174.7 189.8 174.7C194.157 174.7 197.7 171.157 197.7 166.8C197.7 162.442 194.157 158.9 189.8 158.9C185.442 158.9 181.9 162.443 181.9 166.8Z" fill="#FF7A59" stroke="#FF7A59" stroke-linejoin="round"/>
<path d="M237.5 161.7C237.5 139.536 255.536 121.5 277.7 121.5C299.865 121.5 317.9 139.536 317.9 161.7C317.9 183.865 299.865 201.9 277.7 201.9C255.536 201.9 237.5 183.865 237.5 161.7ZM243.9 161.7C243.9 180.339 259.061 195.5 277.7 195.5C296.339 195.5 311.5 180.339 311.5 161.7C311.5 143.06 296.339 127.9 277.7 127.9C259.061 127.9 243.9 143.06 243.9 161.7Z" fill="#FF7A59" stroke="#FF7A59" stroke-linejoin="round"/>
<path d="M261.3 151.8C261.3 143.914 267.714 137.5 275.6 137.5C283.486 137.5 289.9 143.914 289.9 151.8C289.9 159.686 283.486 166.1 275.6 166.1C267.714 166.1 261.3 159.686 261.3 151.8ZM267.7 151.8C267.7 156.157 271.243 159.7 275.6 159.7C279.957 159.7 283.5 156.157 283.5 151.8C283.5 147.442 279.957 143.9 275.6 143.9C271.242 143.9 267.7 147.443 267.7 151.8Z" fill="#FF7A59" stroke="#FF7A59" stroke-linejoin="round"/>
<path d="M296.304 195.68H296.303C290.178 199.225 283.227 201.1 276.2 201.1C269.173 201.1 262.223 199.225 256.097 195.68C255.108 195.107 254.5 194.051 254.5 192.909V183.155C254.5 177.295 259.406 172.5 265.466 172.5H286.934C292.994 172.5 297.9 177.295 297.9 183.159V192.913C297.9 194.052 297.292 195.111 296.304 195.68ZM291.223 191.151C291.402 191.062 291.508 190.876 291.499 190.682V183.159C291.499 180.775 289.414 178.9 286.933 178.9H265.466C262.985 178.9 260.9 180.775 260.9 183.159V190.703C260.9 190.893 261.007 191.066 261.177 191.151C270.527 195.809 281.873 195.809 291.223 191.151Z" fill="#FF7A59" stroke="#FF7A59" stroke-linejoin="round"/>
<path d="M130.6 270.7C130.6 248.536 148.635 230.5 170.8 230.5C192.964 230.5 211 248.535 211 270.7C211 292.864 192.964 310.9 170.8 310.9C148.635 310.9 130.6 292.865 130.6 270.7ZM137 270.7C137 289.339 152.161 304.5 170.8 304.5C189.439 304.5 204.6 289.339 204.6 270.7C204.6 252.06 189.439 236.9 170.8 236.9C152.161 236.9 137 252.06 137 270.7Z" fill="#FF7A59" stroke="#FF7A59" stroke-linejoin="round"/>
<path d="M156.5 259.6C156.5 251.714 162.914 245.3 170.8 245.3C178.686 245.3 185.1 251.714 185.1 259.6C185.1 267.485 178.686 273.9 170.8 273.9C162.914 273.9 156.5 267.486 156.5 259.6ZM162.9 259.6C162.9 263.957 166.443 267.5 170.8 267.5C175.157 267.5 178.7 263.957 178.7 259.6C178.7 255.242 175.157 251.7 170.8 251.7C166.442 251.7 162.9 255.243 162.9 259.6Z" fill="#FF7A59" stroke="#FF7A59" stroke-linejoin="round"/>
<path d="M190.904 305.48H190.903C184.778 309.025 177.827 310.9 170.8 310.9C163.773 310.9 156.823 309.025 150.697 305.48C149.708 304.907 149.1 303.851 149.1 302.709V292.955C149.1 287.095 154.007 282.3 160.066 282.3H181.534C187.594 282.3 192.5 287.095 192.5 292.959V302.712C192.5 303.852 191.892 304.911 190.904 305.48ZM185.823 300.951C186.002 300.862 186.108 300.676 186.1 300.482V292.959C186.1 290.575 184.014 288.7 181.533 288.7H160.066C157.585 288.7 155.5 290.575 155.5 292.959V300.503C155.5 300.693 155.607 300.866 155.777 300.951C165.127 305.609 176.473 305.609 185.823 300.951Z" fill="#FF7A59" stroke="#FF7A59" stroke-linejoin="round"/>
<path d="M23.1742 163.08C24.0862 140.934 42.8486 123.656 64.9944 124.568C87.1397 125.48 104.418 144.242 103.506 166.388C102.594 188.534 83.8319 205.812 61.6862 204.9C39.5404 203.988 22.2622 185.226 23.1742 163.08ZM29.5689 163.343C28.8019 181.967 43.326 197.738 61.9495 198.505C80.573 199.272 96.3447 184.748 97.1116 166.125C97.8786 147.501 83.3545 131.729 64.731 130.963C46.1075 130.196 30.3358 144.72 29.5689 163.343Z" fill="#FF7A59" stroke="#FF7A59" stroke-linejoin="round"/>
<path d="M49.5094 153.055C49.8338 145.176 56.5059 139.031 64.3855 139.356C72.2646 139.68 78.4093 146.353 78.0849 154.232C77.7604 162.111 71.0883 168.256 63.2087 167.931C55.3296 167.607 49.1849 160.934 49.5094 153.055ZM55.9037 153.318C55.7244 157.672 59.1186 161.358 63.472 161.537C67.8255 161.716 71.5113 158.322 71.6906 153.968C71.8699 149.615 68.4756 145.929 64.1222 145.75C59.7683 145.571 56.083 148.964 55.9037 153.318Z" fill="#FF7A59" stroke="#FF7A59" stroke-linejoin="round"/>
<path d="M81.9964 200.312H81.9955C75.7291 203.602 68.7069 205.189 61.6862 204.9C54.6656 204.611 47.7978 202.452 41.8232 198.658C40.8586 198.045 40.2946 196.964 40.3416 195.823L40.743 186.078C40.9841 180.222 46.0837 175.633 52.1385 175.883L73.5875 176.766C79.6422 177.015 84.3473 182.008 84.106 187.867L83.7047 197.612C83.6579 198.751 83.0064 199.784 81.9964 200.312ZM77.1057 195.578C77.2885 195.496 77.4019 195.315 77.4014 195.12L77.7109 187.604C77.809 185.222 75.8023 183.263 73.3238 183.161L51.8747 182.277C49.3962 182.175 47.2352 183.963 47.1371 186.345L46.8267 193.883C46.8189 194.072 46.9189 194.25 47.0851 194.341C56.2354 199.38 67.5724 199.847 77.1057 195.578Z" fill="#FF7A59" stroke="#FF7A59" stroke-linejoin="round"/>
<path d="M119.5 40.7001C119.5 18.5356 137.536 0.5 159.7 0.5C181.864 0.5 199.9 18.5356 199.9 40.7001C199.9 62.8646 181.865 80.9003 159.7 80.9003C137.536 80.9003 119.5 62.8646 119.5 40.7001ZM125.9 40.7001C125.9 59.3394 141.061 74.5001 159.7 74.5001C178.339 74.5001 193.5 59.3394 193.5 40.7001C193.5 22.0609 178.339 6.90014 159.7 6.90014C141.061 6.90014 125.9 22.0609 125.9 40.7001Z" fill="#FF7A59" stroke="#FF7A59" stroke-linejoin="round"/>
<path d="M167.6 29.5997C167.6 25.2421 164.058 21.6995 159.7 21.6995C155.343 21.6995 151.8 25.2426 151.8 29.5997C151.8 33.9572 155.343 37.4998 159.7 37.4998C164.057 37.4998 167.6 33.9572 167.6 29.5997ZM145.4 29.5997C145.4 21.7138 151.814 15.2998 159.7 15.2998C167.586 15.2998 174 21.7142 174 29.6001C174 37.4859 167.586 43.8995 159.7 43.8995C151.814 43.8995 145.4 37.4855 145.4 29.5997Z" fill="#FF7A59" stroke="#FF7A59" stroke-linejoin="round"/>
<path d="M178.304 74.6797L178.303 74.6803C172.178 78.2254 165.227 80.1001 158.2 80.1001C151.173 80.1001 144.223 78.2255 138.097 74.6804C137.108 74.1074 136.5 73.0513 136.5 71.9087V62.1555C136.5 56.2952 141.406 51.5 147.466 51.5H168.934C174.993 51.5 179.9 56.2947 179.9 62.1594V71.9127C179.9 73.0518 179.292 74.1109 178.304 74.6797ZM173.223 70.151C173.402 70.0618 173.508 69.8763 173.499 69.682V62.1594C173.499 59.7749 171.414 57.9001 168.933 57.9001H147.466C144.985 57.9001 142.9 59.7749 142.9 62.1594V69.7035C142.9 69.8931 143.007 70.0665 143.177 70.151C152.527 74.8088 163.873 74.8088 173.223 70.151Z" fill="#FF7A59" stroke="#FF7A59" stroke-linejoin="round"/>
<path d="M128.14 52.1323C88.5 71.0002 71 98.5002 65 126.5" stroke="#FF7A59" stroke-width="10" stroke-linejoin="round"/>
<path d="M209 271.5C250.5 258 268 240.5 275 197" stroke="#FF7A59" stroke-width="10" stroke-linejoin="round"/>
<path d="M136.329 273.792C88 265.5 69.6714 226.208 66.5 204" stroke="#FF7A59" stroke-width="10" stroke-linejoin="round"/>
<path d="M197 49.4517C213.373 51.3037 225.841 55.4816 235.459 62.3422" stroke="#FF7A59" stroke-width="10" stroke-linejoin="round"/>
<path d="M245 167H201" stroke="#FF7A59" stroke-width="10" stroke-linejoin="round"/>
<path d="M42.7539 192.095L20.7539 217.095" stroke="#FF7A59" stroke-width="10" stroke-linejoin="round"/>
</svg>
