<svg width="40" height="35" viewBox="0 0 40 35" fill="none" xmlns="http://www.w3.org/2000/svg">
<path d="M39.3286 15.8167L33.2664 10.1203V3.53996C33.2664 2.35015 32.2403 1.3859 30.9722 1.3859C29.7071 1.3859 28.681 2.35015 28.681 3.53996V5.81163L24.1672 1.57004C21.9355 -0.525835 18.0554 -0.522118 15.8289 1.57383L0.671097 15.8167C-0.223699 16.6592 -0.223699 18.0224 0.671097 18.8636C1.5663 19.7058 3.01984 19.7058 3.91471 18.8636L19.071 4.6203C19.5648 4.15877 20.435 4.15877 20.9262 4.61893L36.0851 18.8636C36.5346 19.2847 37.1206 19.4942 37.7065 19.4942C38.2935 19.4942 38.8805 19.2845 39.3287 18.8636C40.2238 18.0225 40.2238 16.6593 39.3286 15.8167Z" fill="black"/>
<path d="M20.7961 8.7096C20.3558 8.29602 19.6427 8.29602 19.2036 8.7096L5.87085 21.2342C5.66035 21.4319 5.54102 21.7019 5.54102 21.9836V31.1186C5.54102 33.2622 7.39068 35.0002 9.67184 35.0002H16.2729V25.3941H23.7254V35.0002H30.3266C32.6077 35.0002 34.4573 33.2622 34.4573 31.1187V21.9836C34.4573 21.7019 34.339 21.4319 34.1275 21.2342L20.7961 8.7096Z" fill="black"/>
</svg>
