<svg width="40" height="35" viewBox="0 0 40 35" fill="none" xmlns="http://www.w3.org/2000/svg">
<path d="M20 0C14.1845 0 9.45312 4.13991 9.45312 9.22852C9.45312 14.3171 14.1845 18.457 20 18.457C25.8155 18.457 30.5469 14.3171 30.5469 9.22852C30.5469 4.13991 25.8155 0 20 0Z" fill="black"/>
<path d="M33.1223 24.486C30.2348 21.9206 26.407 20.5078 22.3438 20.5078H17.6562C13.5931 20.5078 9.76516 21.9206 6.87766 24.486C4.0043 27.0388 2.42188 30.4085 2.42188 33.9746C2.42188 34.5409 2.94656 35 3.59375 35H36.4062C37.0534 35 37.5781 34.5409 37.5781 33.9746C37.5781 30.4085 35.9957 27.0388 33.1223 24.486Z" fill="black"/>
</svg>
