<svg width="40" height="35" viewBox="0 0 40 35" fill="none" xmlns="http://www.w3.org/2000/svg">
<g clip-path="url(#clip0)">
<path d="M20 10.2881C16.7693 10.2881 14.1406 7.988 14.1406 5.16113C14.1406 2.33427 16.7693 0.0341797 20 0.0341797C23.2307 0.0341797 25.8594 2.33427 25.8594 5.16113C25.8594 7.988 23.2307 10.2881 20 10.2881Z" fill="black"/>
<path d="M0.783307 29.3263C-0.831459 26.878 0.130963 23.7367 2.92909 22.3228C5.78464 20.8815 9.34182 21.7892 10.9331 24.1994C12.552 26.6514 11.5924 29.7855 8.78846 31.2029C5.97909 32.6204 2.4012 31.7768 0.783307 29.3263Z" fill="black"/>
<path d="M31.2116 31.2029C28.4095 29.7864 27.4472 26.6528 29.067 24.1994C30.6582 21.7893 34.2153 20.8814 37.071 22.3229C39.869 23.7368 40.8315 26.878 39.2168 29.3263C37.6009 31.7737 34.025 32.6225 31.2116 31.2029Z" fill="black"/>
<path d="M4.78836 18.8393L2.44922 18.7272C2.75359 13.8766 5.71539 9.38646 10.3708 6.71484L11.6571 8.42916C7.62078 10.7454 5.05383 14.6376 4.78836 18.8393Z" fill="black"/>
<path d="M35.2115 18.8393C34.9461 14.6376 32.3791 10.7453 28.3428 8.42916L29.6291 6.71484C34.2846 9.38646 37.2463 13.8766 37.5507 18.7272L35.2115 18.8393Z" fill="black"/>
<path d="M20.0001 34.966C17.2123 34.966 14.547 34.4113 12.0762 33.3187L13.1336 31.4883C17.4137 33.3829 22.5864 33.3829 26.8665 31.4883L27.9239 33.3187C25.4532 34.4113 22.7879 34.966 20.0001 34.966Z" fill="black"/>
</g>
<defs>
<clipPath id="clip0">
<rect width="40" height="35" fill="white"/>
</clipPath>
</defs>
</svg>
