<svg width="40" height="35" viewBox="0 0 40 35" fill="none" xmlns="http://www.w3.org/2000/svg">
<path d="M20 10.2881C16.7693 10.2881 14.1406 7.988 14.1406 5.16113C14.1406 2.33427 16.7693 0.0341797 20 0.0341797C23.2307 0.0341797 25.8594 2.33427 25.8594 5.16113C25.8594 7.988 23.2307 10.2881 20 10.2881Z" fill="#3528B2"/>
<path d="M0.783307 29.3261C-0.831459 26.8778 0.130963 23.7365 2.92909 22.3226C5.78464 20.8812 9.34182 21.789 10.9331 24.1991C12.552 26.6512 11.5924 29.7853 8.78846 31.2026C5.97909 32.6202 2.4012 31.7766 0.783307 29.3261V29.3261Z" fill="#3528B2"/>
<path d="M31.2116 31.2026C28.4095 29.7862 27.4472 26.6526 29.067 24.1991C30.6582 21.7891 34.2153 20.8812 37.071 22.3226C39.869 23.7366 40.8315 26.8778 39.2168 29.3261C37.6009 31.7735 34.025 32.6222 31.2116 31.2026V31.2026Z" fill="#3528B2"/>
<path d="M4.78836 18.8391L2.44922 18.7269C2.75359 13.8763 5.71539 9.38622 10.3708 6.7146L11.6571 8.42892C7.62078 10.7451 5.05383 14.6374 4.78836 18.8391V18.8391Z" fill="#3528B2"/>
<path d="M35.2115 18.839C34.9461 14.6373 32.3791 10.7451 28.3428 8.42892L29.6291 6.7146C34.2846 9.38622 37.2463 13.8763 37.5507 18.7269L35.2115 18.839Z" fill="#3528B2"/>
<path d="M20.0001 34.966C17.2123 34.966 14.547 34.4113 12.0762 33.3187L13.1336 31.4883C17.4137 33.3829 22.5864 33.3829 26.8665 31.4883L27.9239 33.3187C25.4532 34.4113 22.7879 34.966 20.0001 34.966Z" fill="#3528B2"/>
</svg>
